<?xml version="1.0" encoding="UTF-8" standalone="no"?>
<!-- Created with Inkscape (http://www.inkscape.org/) -->

<svg
   xmlns:dc="http://purl.org/dc/elements/1.1/"
   xmlns:cc="http://creativecommons.org/ns#"
   xmlns:rdf="http://www.w3.org/1999/02/22-rdf-syntax-ns#"
   xmlns:svg="http://www.w3.org/2000/svg"
   xmlns="http://www.w3.org/2000/svg"
   xmlns:xlink="http://www.w3.org/1999/xlink"
   xmlns:sodipodi="http://sodipodi.sourceforge.net/DTD/sodipodi-0.dtd"
   xmlns:inkscape="http://www.inkscape.org/namespaces/inkscape"
   width="43.293678mm"
   height="35.54995mm"
   viewBox="0 0 153.4028 125.96439"
   id="svg5258"
   version="1.1"
   inkscape:version="0.91 r13725"
   sodipodi:docname="icon.svg"
   inkscape:export-filename="C:\Users\Piotr\Documents\GitHub\slowwavedevice\src\slowwavedevice\Resources\icon.png"
   inkscape:export-xdpi="90"
   inkscape:export-ydpi="90">
  <defs
     id="defs5260">
    <linearGradient
       id="linearGradient7678-8"
       inkscape:collect="always">
      <stop
         id="stop4305"
         offset="0"
         style="stop-color:#9a0000;stop-opacity:1" />
      <stop
         id="stop4307"
         offset="1"
         style="stop-color:#ffd5d5;stop-opacity:1" />
    </linearGradient>
    <linearGradient
       inkscape:collect="always"
       id="linearGradient7678">
      <stop
         style="stop-color:#9a0000;stop-opacity:1"
         offset="0"
         id="stop7680" />
      <stop
         style="stop-color:#ffd5d5;stop-opacity:1"
         offset="1"
         id="stop7682" />
    </linearGradient>
    <linearGradient
       gradientTransform="translate(188.41407,64.98705)"
       inkscape:collect="always"
       xlink:href="#linearGradient4263"
       id="linearGradient4253"
       x1="181.1147"
       y1="174.58525"
       x2="181.46434"
       y2="213.22072"
       gradientUnits="userSpaceOnUse" />
    <linearGradient
       id="linearGradient4263"
       inkscape:collect="always">
      <stop
         id="stop4265"
         offset="0"
         style="stop-color:#217867;stop-opacity:1" />
      <stop
         id="stop4267"
         offset="1"
         style="stop-color:#2ca089;stop-opacity:1" />
    </linearGradient>
    <linearGradient
       inkscape:collect="always"
       xlink:href="#linearGradient7678"
       id="linearGradient7908-9"
       gradientUnits="userSpaceOnUse"
       gradientTransform="matrix(0.8736479,0,0,1,48.436501,3.92915)"
       x1="65.086906"
       y1="5.099947"
       x2="15.288637"
       y2="69.469582" />
    <linearGradient
       inkscape:collect="always"
       xlink:href="#linearGradient7678-8"
       id="linearGradient7908-9-6"
       gradientUnits="userSpaceOnUse"
       gradientTransform="matrix(0.8736479,0,0,1,48.436501,3.92915)"
       x1="-13.759918"
       y1="11.444567"
       x2="70.57196"
       y2="71.233246" />
  </defs>
  <sodipodi:namedview
     id="base"
     pagecolor="#ffffff"
     bordercolor="#666666"
     borderopacity="1.0"
     inkscape:pageopacity="0.0"
     inkscape:pageshadow="2"
     inkscape:zoom="2.2065964"
     inkscape:cx="-10.288022"
     inkscape:cy="43.57783"
     inkscape:document-units="px"
     inkscape:current-layer="svg5258"
     showgrid="false"
     inkscape:window-width="1280"
     inkscape:window-height="657"
     inkscape:window-x="-8"
     inkscape:window-y="-8"
     inkscape:window-maximized="1"
     fit-margin-top="0"
     fit-margin-left="0"
     fit-margin-right="0"
     fit-margin-bottom="0"
     showborder="true" />
  <metadata
     id="metadata5263">
    <rdf:RDF>
      <cc:Work
         rdf:about="">
        <dc:format>image/svg+xml</dc:format>
        <dc:type
           rdf:resource="http://purl.org/dc/dcmitype/StillImage" />
        <dc:title />
      </cc:Work>
    </rdf:RDF>
  </metadata>
  <g
     inkscape:label="Layer 1"
     inkscape:groupmode="layer"
     id="layer1"
     transform="translate(-291.87003,-152.22866)" />
  <path
     style="fill:url(#linearGradient4253);fill-opacity:1;fill-rule:evenodd;stroke:#006d44;stroke-width:0.9541207px;stroke-linecap:butt;stroke-linejoin:miter;stroke-opacity:0.76537583"
     d="m 0.51716125,125.96389 -0.0406,-38.78695 0,0 22.73950975,0 -0.0203,30.02525 20.81835,0.0124 -0.1686,-29.96717 0,0 22.73951,0 -0.0203,30.02526 20.74205,-0.0207 -0.10922,-30.07497 0,0 22.739509,0 -0.0203,30.02525 20.62808,-0.0601 -0.35887,-29.89044 0,0 22.73951,0 -0.0203,38.38482"
     id="path3340-0"
     inkscape:connector-curvature="0"
     sodipodi:nodetypes="cccccccccccccccccccc" />
  <path
     style="color:#000000;font-style:normal;font-variant:normal;font-weight:normal;font-stretch:normal;font-size:medium;line-height:normal;font-family:sans-serif;text-indent:0;text-align:start;text-decoration:none;text-decoration-line:none;text-decoration-style:solid;text-decoration-color:#000000;letter-spacing:normal;word-spacing:normal;text-transform:none;direction:ltr;block-progression:tb;writing-mode:lr-tb;baseline-shift:baseline;text-anchor:start;white-space:normal;clip-rule:nonzero;display:inline;overflow:visible;visibility:visible;opacity:1;isolation:auto;mix-blend-mode:normal;color-interpolation:sRGB;color-interpolation-filters:linearRGB;solid-color:#000000;solid-opacity:1;fill:url(#linearGradient7908-9);fill-opacity:1;fill-rule:evenodd;stroke:none;stroke-width:8.80000019;stroke-linecap:butt;stroke-linejoin:miter;stroke-miterlimit:4.80000019;stroke-dasharray:none;stroke-dashoffset:0;stroke-opacity:1;color-rendering:auto;image-rendering:auto;shape-rendering:auto;text-rendering:auto;enable-background:accumulate"
     d="m 88.997224,13.349918 c 2.149152,0.28599 4.22262,0.991279 6.13665,2.027248 -6.682133,8.711089 -9.359335,10.244181 -14.213829,20.118366 -2.645149,5.380305 -3.6194,10.568593 -4.557121,15.002146 -0.937716,4.433562 -1.828002,8.044371 -3.934942,11.181714 -1.905188,2.836949 -5.388095,4.740807 -9.776096,7.189812 -4.387975,2.449024 -9.553819,5.529486 -13.511383,11.385541 l 6.771209,5.447653 c 3.014912,-4.461205 6.949536,-6.882399 11.191647,-9.249991 4.242111,-2.367593 8.918624,-4.594897 12.106894,-9.342419 2.986547,-4.447136 4.07466,-9.275993 5.035018,-13.816558 0.960349,-4.540559 1.804765,-8.862543 3.939755,-13.205164 4.534834,-9.223998 6.536168,-9.870363 13.511324,-18.973474 1.34668,1.828795 2.40486,3.89714 3.07073,6.131022 L 112.31776,0 88.997224,13.349918 Z"
     id="path7913-4"
     inkscape:connector-curvature="0" />
  <path
     style="color:#000000;font-style:normal;font-variant:normal;font-weight:normal;font-stretch:normal;font-size:medium;line-height:normal;font-family:sans-serif;text-indent:0;text-align:start;text-decoration:none;text-decoration-line:none;text-decoration-style:solid;text-decoration-color:#000000;letter-spacing:normal;word-spacing:normal;text-transform:none;direction:ltr;block-progression:tb;writing-mode:lr-tb;baseline-shift:baseline;text-anchor:start;white-space:normal;clip-rule:nonzero;display:inline;overflow:visible;visibility:visible;opacity:1;isolation:auto;mix-blend-mode:normal;color-interpolation:sRGB;color-interpolation-filters:linearRGB;solid-color:#000000;solid-opacity:1;fill:url(#linearGradient7908-9-6);fill-opacity:1;fill-rule:evenodd;stroke:none;stroke-width:8.80000019;stroke-linecap:butt;stroke-linejoin:miter;stroke-miterlimit:4.80000019;stroke-dasharray:none;stroke-dashoffset:0;stroke-opacity:1;color-rendering:auto;image-rendering:auto;shape-rendering:auto;text-rendering:auto;enable-background:accumulate"
     d="m 56.064127,16.07429 c -2.103171,0.498053 -4.010317,1.367283 -5.661493,2.518152 9.265927,7.142804 12.422478,8.232853 20.161145,16.631995 4.216689,4.576572 6.680541,9.165238 8.892906,13.07469 2.212352,3.909458 4.142808,7.079335 7.175408,9.685192 2.742208,2.356365 6.822987,3.692419 11.97854,5.421289 5.155537,1.728898 11.281037,3.942898 16.966797,8.804143 l -5.33497,5.685322 C 105.91099,74.191724 101.22415,72.437577 96.240008,70.766177 91.255857,69.094764 85.870029,67.598701 81.281032,63.655438 76.982395,59.961663 74.504896,55.711073 72.239136,51.707259 69.973382,47.703459 67.887555,43.884631 64.484114,40.19073 57.255021,32.344635 55.03729,31.982167 45.362184,24.517057 c -0.849352,1.805492 -1.337406,3.795758 -1.379705,5.892234 L 28.569359,6.58324 56.064127,16.07429 Z"
     id="path7913-4-1"
     inkscape:connector-curvature="0" />
</svg>
